<svg width="49" height="49" viewBox="0 0 49 49" fill="none" xmlns="http://www.w3.org/2000/svg">
<path opacity="0.4" d="M24.4474 37.2461L11.4639 43.7313C10.4834 44.2635 9.26036 43.9081 8.71196 42.9317C8.5518 42.6247 8.46711 42.2835 8.465 41.9367V27.4207C8.465 28.8598 9.27646 29.7482 11.411 30.7432L24.4474 37.2461Z" fill="#41B883"/>
<path d="M30.6039 4.00293C36.0196 4.00293 40.4121 6.13503 40.465 11.5897V41.9366C40.4628 42.2777 40.3781 42.6132 40.218 42.9138C39.9609 43.4042 39.5169 43.7683 38.9879 43.9224C38.459 44.0766 37.8906 44.0075 37.4132 43.7311L24.4474 37.246L11.411 30.7431C9.27646 29.7481 8.465 28.8597 8.465 27.4205V11.5897C8.465 6.13503 12.8575 4.00293 18.2555 4.00293H30.6039ZM31.9622 16.0849H16.9148C16.0477 16.0849 15.3448 16.7928 15.3448 17.6662C15.3448 18.5395 16.0477 19.2475 16.9148 19.2475H31.9622C32.8293 19.2475 33.5323 18.5395 33.5323 17.6662C33.5323 16.7928 32.8293 16.0849 31.9622 16.0849Z" fill="#41B883"/>
</svg>
